<svg xmlns="http://www.w3.org/2000/svg" version="1.1" xmlns:xlink="http://www.w3.org/1999/xlink" xmlns:svgjs="http://svgjs.dev/svgjs" width="150" height="0" viewBox="0 0 1000 512"><g transform="matrix(1,0,0,1,-0.6060606060606233,0.049805271051866384)"><svg viewBox="0 0 396 203" data-background-color="#051726" preserveAspectRatio="xMidYMid meet" height="512" width="1000" xmlns="http://www.w3.org/2000/svg" xmlns:xlink="http://www.w3.org/1999/xlink"><g id="tight-bounds" transform="matrix(1,0,0,1,0.2400000000000091,-0.019747011764707167)"><svg viewBox="0 0 395.52 203.03949402352941" height="203.03949402352941" width="395.52"><g><svg viewBox="0 0 395.52 203.03949402352941" height="203.03949402352941" width="395.52"><g transform="matrix(1,0,0,1,0,125.48655284705882)"><svg viewBox="0 0 395.52 77.55294117647058" height="77.55294117647058" width="395.52"><g id="textblocktransform"><svg viewBox="0 0 395.52 77.55294117647058" height="77.55294117647058" width="395.52" id="textblock"><g><svg viewBox="0 0 395.52 77.55294117647058" height="77.55294117647058" width="395.52"><g transform="matrix(1,0,0,1,0,0)"><svg width="395.52" viewBox="2.049999952316284 -35.5 183.5800018310547 36" height="77.55294117647058" data-palette-color="#ffffff"><path d="M2.05 0L2.05-35 9.9-35 13.4-9.95 13.5-9.95 17-35 24.85-35 24.85 0 19.65 0 19.65-26.5 19.55-26.5 15.55 0 10.95 0 6.95-26.5 6.85-26.5 6.85 0 2.05 0ZM27.5 0L33.2-35 40.65-35 46.35 0 40.85 0 39.85-6.95 39.85-6.85 33.6-6.85 32.6 0 27.5 0ZM34.25-11.6L39.2-11.6 36.75-28.9 36.65-28.9 34.25-11.6ZM56 0.5Q52 0.5 49.95-1.78 47.9-4.05 47.9-8.3L47.9-8.3 47.9-10.3 53.1-10.3 53.1-7.9Q53.1-4.5 55.95-4.5L55.95-4.5Q57.35-4.5 58.07-5.33 58.8-6.15 58.8-8L58.8-8Q58.8-10.2 57.8-11.88 56.8-13.55 54.1-15.9L54.1-15.9Q50.7-18.9 49.35-21.33 48-23.75 48-26.8L48-26.8Q48-30.95 50.1-33.23 52.2-35.5 56.2-35.5L56.2-35.5Q60.15-35.5 62.17-33.23 64.2-30.95 64.2-26.7L64.2-26.7 64.2-25.25 59-25.25 59-27.05Q59-28.85 58.3-29.68 57.6-30.5 56.25-30.5L56.25-30.5Q53.5-30.5 53.5-27.15L53.5-27.15Q53.5-25.25 54.52-23.6 55.55-21.95 58.25-19.6L58.25-19.6Q61.7-16.6 63-14.15 64.3-11.7 64.3-8.4L64.3-8.4Q64.3-4.1 62.17-1.8 60.05 0.5 56 0.5L56 0.5ZM71.74 0L71.74-30 65.99-30 65.99-35 82.99-35 82.99-30 77.24-30 77.24 0 71.74 0ZM85.64 0L85.64-35 100.64-35 100.64-30 91.14-30 91.14-20.75 98.69-20.75 98.69-15.75 91.14-15.75 91.14-5 100.64-5 100.64 0 85.64 0ZM103.79 0L103.79-35 111.94-35Q116.19-35 118.14-33.02 120.09-31.05 120.09-26.95L120.09-26.95 120.09-24.8Q120.09-19.35 116.49-17.9L116.49-17.9 116.49-17.8Q118.49-17.2 119.31-15.35 120.14-13.5 120.14-10.4L120.14-10.4 120.14-4.25Q120.14-2.75 120.24-1.83 120.34-0.9 120.74 0L120.74 0 115.14 0Q114.84-0.85 114.74-1.6 114.64-2.35 114.64-4.3L114.64-4.3 114.64-10.7Q114.64-13.1 113.86-14.05 113.09-15 111.19-15L111.19-15 109.29-15 109.29 0 103.79 0ZM109.29-20L111.29-20Q112.94-20 113.76-20.85 114.59-21.7 114.59-23.7L114.59-23.7 114.59-26.4Q114.59-28.3 113.91-29.15 113.24-30 111.79-30L111.79-30 109.29-30 109.29-20ZM123.94 0L123.94-35 138.49-35 138.49-30 129.44-30 129.44-20.25 136.54-20.25 136.54-15.25 129.44-15.25 129.44 0 123.94 0ZM141.13 0L141.13-35 146.63-35 146.63-5 155.68-5 155.68 0 141.13 0ZM158.33 0L158.33-35 163.83-35 163.83 0 158.33 0ZM166.43 0L172.78-17.9 166.73-35 172.53-35 176.23-23.7 176.33-23.7 180.13-35 185.33-35 179.28-17.9 185.63 0 179.83 0 175.83-12.2 175.73-12.2 171.63 0 166.43 0Z" opacity="1" transform="matrix(1,0,0,1,0,0)" fill="#ffffff" class="wordmark-text-0" data-fill-palette-color="primary" id="text-0"></path></svg></g></svg></g></svg></g></svg></g><g transform="matrix(1,0,0,1,136.17091764705881,0)"><svg viewBox="0 0 123.17816470588235 107.17816470588235" height="107.17816470588235" width="123.17816470588235"><g><svg xmlns="http://www.w3.org/2000/svg" xmlns:xlink="http://www.w3.org/1999/xlink" version="1.0" x="8" y="0" viewBox="1 1 48 48" enable-background="new 0 0 50 50" xml:space="preserve" height="107.17816470588235" width="107.17816470588235" class="icon-icon-0" data-fill-palette-color="accent" id="icon-0"><g fill="#81ffd9" data-fill-palette-color="accent"><g fill="#81ffd9" data-fill-palette-color="accent"><rect x="1" y="1" fill="#81ffd9" width="23" height="5" data-fill-palette-color="accent"></rect><rect x="1" y="10" fill="#81ffd9" width="23" height="5" data-fill-palette-color="accent"></rect><rect x="1" y="19" fill="#81ffd9" width="23" height="5" data-fill-palette-color="accent"></rect></g><g fill="#81ffd9" data-fill-palette-color="accent"><rect x="26" y="26" fill="#81ffd9" width="23" height="5" data-fill-palette-color="accent"></rect><rect x="26" y="35" fill="#81ffd9" width="23" height="5" data-fill-palette-color="accent"></rect><rect x="26" y="44" fill="#81ffd9" width="23" height="5" data-fill-palette-color="accent"></rect></g><g fill="#81ffd9" data-fill-palette-color="accent"><rect x="19" y="26" fill="#81ffd9" width="5" height="23" data-fill-palette-color="accent"></rect><rect x="10" y="26" fill="#81ffd9" width="5" height="23" data-fill-palette-color="accent"></rect><rect x="1" y="26" fill="#81ffd9" width="5" height="23" data-fill-palette-color="accent"></rect></g><g fill="#81ffd9" data-fill-palette-color="accent"><rect x="44" y="1" fill="#81ffd9" width="5" height="23" data-fill-palette-color="accent"></rect><rect x="35" y="1" fill="#81ffd9" width="5" height="23" data-fill-palette-color="accent"></rect><rect x="26" y="1" fill="#81ffd9" width="5" height="23" data-fill-palette-color="accent"></rect></g></g></svg></g></svg></g><g><rect width="136.17091764705881" height="6.993804269929411" y="99.18436043595295" x="259.3490823529412" fill="#81ffd9" data-fill-palette-color="accent"></rect><rect width="136.17091764705881" height="6.993804269929411" y="99.18436043595295" x="0" fill="#81ffd9" data-fill-palette-color="accent"></rect><rect width="136.17091764705881" height="6.993804269929411" y="85.19675189609413" x="259.3490823529412" fill="#81ffd9" data-fill-palette-color="accent"></rect><rect width="136.17091764705881" height="6.993804269929411" y="85.19675189609413" x="0" fill="#81ffd9" data-fill-palette-color="accent"></rect></g></svg></g><defs></defs></svg><rect width="395.52" height="203.03949402352941" fill="none" stroke="none" visibility="hidden"></rect></g></svg></g></svg>